<svg width="6" height="5" viewBox="0 0 6 5" fill="none" xmlns="http://www.w3.org/2000/svg">
<g clip-path="url(#clip0_17_88)">
<path d="M2.87179 3.73333C2.95307 3.73333 3.02142 3.70576 3.07627 3.65062C3.13141 3.59577 3.15897 3.52743 3.15897 3.44615C3.15897 3.36488 3.13141 3.29654 3.07627 3.24169C3.02142 3.18655 2.95307 3.15897 2.87179 3.15897C2.79052 3.15897 2.72217 3.18655 2.66732 3.24169C2.61218 3.29654 2.58462 3.36488 2.58462 3.44615C2.58462 3.52743 2.61218 3.59577 2.66732 3.65062C2.72217 3.70576 2.79052 3.73333 2.87179 3.73333ZM2.87179 2.58462C2.95307 2.58462 3.02142 2.55704 3.07627 2.5019C3.13141 2.44705 3.15897 2.37871 3.15897 2.29744C3.15897 2.21616 3.13141 2.14781 3.07627 2.09267C3.02142 2.03782 2.95307 2.01026 2.87179 2.01026C2.79052 2.01026 2.72217 2.03782 2.66732 2.09267C2.61218 2.14781 2.58462 2.21616 2.58462 2.29744C2.58462 2.37871 2.61218 2.44705 2.66732 2.5019C2.72217 2.55704 2.79052 2.58462 2.87179 2.58462ZM2.87179 1.4359C2.95307 1.4359 3.02142 1.40833 3.07627 1.35348C3.13141 1.29834 3.15897 1.22999 3.15897 1.14872C3.15897 1.06745 3.13141 0.999094 3.07627 0.943955C3.02142 0.889104 2.95307 0.861539 2.87179 0.861539C2.79052 0.861539 2.72217 0.889104 2.66732 0.943955C2.61218 0.999094 2.58462 1.06745 2.58462 1.14872C2.58462 1.22999 2.61218 1.29834 2.66732 1.35348C2.72217 1.40833 2.79052 1.4359 2.87179 1.4359ZM5.16923 4.59487H0.574359C0.41641 4.59487 0.28115 4.53859 0.168576 4.4263C0.0562888 4.31373 0 4.17846 0 4.02051V2.87179C0.157949 2.87179 0.293209 2.81552 0.405783 2.70323C0.51807 2.59065 0.574359 2.45538 0.574359 2.29744C0.574359 2.13949 0.51807 2.00423 0.405783 1.89194C0.293209 1.77937 0.157949 1.72308 0 1.72308V0.574359C0 0.41641 0.0562888 0.281142 0.168576 0.168567C0.28115 0.05628 0.41641 0 0.574359 0H5.16923C5.32718 0 5.46244 0.05628 5.57501 0.168567C5.6873 0.281142 5.74359 0.41641 5.74359 0.574359V1.72308C5.58564 1.72308 5.45038 1.77937 5.33781 1.89194C5.22552 2.00423 5.16923 2.13949 5.16923 2.29744C5.16923 2.45538 5.22552 2.59065 5.33781 2.70323C5.45038 2.81552 5.58564 2.87179 5.74359 2.87179V4.02051C5.74359 4.17846 5.6873 4.31373 5.57501 4.4263C5.46244 4.53859 5.32718 4.59487 5.16923 4.59487Z" fill="#94A3B8"/>
</g>
<defs>
<clipPath id="clip0_17_88">
<rect width="6" height="5" fill="white"/>
</clipPath>
</defs>
</svg>
