<svg width="5" height="6" viewBox="0 0 5 6" fill="none" xmlns="http://www.w3.org/2000/svg">
<g clip-path="url(#clip0_17_66)">
<path d="M2.29744 5.74359C1.63213 5.57616 1.0829 5.1945 0.649744 4.59861C0.216591 4.00271 0 3.34075 0 2.61333V0.861539L2.29744 0L4.59487 0.861539V2.61333C4.59487 3.34075 4.37828 4.00271 3.94513 4.59861C3.51198 5.1945 2.96274 5.57616 2.29744 5.74359ZM2.29744 5.14052C2.7952 4.98257 3.20685 4.66666 3.53231 4.19281C3.85777 3.71897 4.02051 3.19257 4.02051 2.61333V1.25641L2.29744 0.610256L0.574359 1.25641V2.61333C0.574359 3.19257 0.737104 3.71897 1.06256 4.19281C1.38802 4.66666 1.79967 4.98257 2.29744 5.14052Z" fill="#94A3B8"/>
</g>
<defs>
<clipPath id="clip0_17_66">
<rect width="5" height="6" fill="white"/>
</clipPath>
</defs>
</svg>
