<svg width="8" height="8" viewBox="0 0 8 8" fill="none" xmlns="http://www.w3.org/2000/svg">
<g clip-path="url(#clip0_17_64)">
<path d="M1.41625 5.55462C1.72892 5.31551 2.07839 5.12699 2.46464 4.98904C2.85089 4.8511 3.25552 4.78212 3.67856 4.78212C4.10159 4.78212 4.50623 4.8511 4.89248 4.98904C5.27872 5.12699 5.62819 5.31551 5.94087 5.55462C6.15533 5.30326 6.3227 5.01818 6.44226 4.69936C6.56181 4.38054 6.6214 4.04027 6.6214 3.67856C6.6214 2.86313 6.33484 2.1688 5.76172 1.59557C5.18823 1.02234 4.49409 0.735711 3.67856 0.735711C2.86302 0.735711 2.16888 1.02234 1.59576 1.59557C1.02228 2.1688 0.735711 2.86313 0.735711 3.67856C0.735711 4.04027 0.795304 4.38054 0.914857 4.69936C1.03441 5.01818 1.20179 5.30326 1.41625 5.55462ZM3.67856 4.04641C3.31695 4.04641 3.01163 3.92226 2.76333 3.67396C2.51503 3.42566 2.39106 3.12063 2.39106 2.75892C2.39106 2.3972 2.51503 2.09218 2.76333 1.84388C3.01163 1.59557 3.31695 1.47142 3.67856 1.47142C4.04016 1.47142 4.34548 1.59557 4.59378 1.84388C4.84209 2.09218 4.96605 2.3972 4.96605 2.75892C4.96605 3.12063 4.84209 3.42566 4.59378 3.67396C4.34548 3.92226 4.04016 4.04641 3.67856 4.04641ZM3.67856 7.35711C3.16981 7.35711 2.6916 7.26055 2.24392 7.06743C1.79624 6.8743 1.40704 6.61221 1.07597 6.28113C0.744903 5.95006 0.482625 5.56076 0.289868 5.11319C0.096744 4.66562 0 4.18741 0 3.67856C0 3.1697 0.096744 2.69149 0.289868 2.24392C0.482625 1.79635 0.744903 1.40705 1.07597 1.07598C1.40704 0.744907 1.79624 0.482811 2.24392 0.289686C2.6916 0.0965622 3.16981 0 3.67856 0C4.1873 0 4.66551 0.0965622 5.11319 0.289686C5.56087 0.482811 5.95007 0.744907 6.28114 1.07598C6.61221 1.40705 6.87412 1.79635 7.06724 2.24392C7.26037 2.69149 7.35711 3.1697 7.35711 3.67856C7.35711 4.18741 7.26037 4.66562 7.06724 5.11319C6.87412 5.56076 6.61221 5.95006 6.28114 6.28113C5.95007 6.61221 5.56087 6.8743 5.11319 7.06743C4.66551 7.26055 4.1873 7.35711 3.67856 7.35711ZM3.67856 6.6214C4.00337 6.6214 4.31016 6.57387 4.5982 6.47886C4.88623 6.38384 5.14998 6.2474 5.38908 6.06962C5.14998 5.89183 4.88623 5.7554 4.5982 5.66038C4.31016 5.56536 4.00337 5.51783 3.67856 5.51783C3.35374 5.51783 3.04695 5.56536 2.75892 5.66038C2.47089 5.7554 2.20714 5.89183 1.96803 6.06962C2.20714 6.2474 2.47089 6.38384 2.75892 6.47886C3.04695 6.57387 3.35374 6.6214 3.67856 6.6214ZM3.67856 3.3107C3.83784 3.3107 3.9699 3.25858 4.07401 3.15436C4.17811 3.05015 4.23034 2.91831 4.23034 2.75892C4.23034 2.59953 4.17811 2.46769 4.07401 2.36347C3.9699 2.25926 3.83784 2.20713 3.67856 2.20713C3.51927 2.20713 3.38721 2.25926 3.28311 2.36347C3.179 2.46769 3.12677 2.59953 3.12677 2.75892C3.12677 2.91831 3.179 3.05015 3.28311 3.15436C3.38721 3.25858 3.51927 3.3107 3.67856 3.3107Z" fill="#94A3B8"/>
</g>
<defs>
<clipPath id="clip0_17_64">
<rect width="8" height="8" fill="white"/>
</clipPath>
</defs>
</svg>
