<svg width="8" height="8" viewBox="0 0 8 8" fill="none" xmlns="http://www.w3.org/2000/svg">
<g clip-path="url(#clip0_17_58)">
<path d="M2.68534 7.35711L2.5382 6.17999C2.45838 6.15056 2.38333 6.11376 2.3127 6.06962C2.24244 6.02548 2.17328 5.98133 2.10596 5.92983L1.0116 6.39333L0 4.64234L0.947221 3.92872C0.940968 3.88457 0.938027 3.84408 0.938027 3.80361C0.938027 3.76315 0.938027 3.7227 0.938027 3.67856C0.938027 3.63441 0.938027 3.59396 0.938027 3.5535C0.938027 3.51303 0.940968 3.47254 0.947221 3.42839L0 2.71478L1.0116 0.96378L2.10596 1.42728C2.17328 1.37578 2.24391 1.33164 2.31749 1.28749C2.39106 1.24335 2.46463 1.20655 2.5382 1.17712L2.68534 0H4.70855L4.85569 1.17712C4.93551 1.20655 5.01055 1.24335 5.08081 1.28749C5.15144 1.33164 5.22061 1.37578 5.28792 1.42728L6.38229 0.96378L7.39389 2.71478L6.44667 3.42839C6.45292 3.47254 6.45586 3.51303 6.45586 3.5535C6.45586 3.59396 6.45586 3.63441 6.45586 3.67856C6.45586 3.7227 6.45586 3.76315 6.45586 3.80361C6.45586 3.84408 6.44961 3.88457 6.43747 3.92872L7.38469 4.64234L6.37309 6.39333L5.28792 5.92983C5.22061 5.98133 5.14997 6.02548 5.0764 6.06962C5.00283 6.11376 4.92926 6.15056 4.85569 6.17999L4.70855 7.35711H2.68534ZM3.32909 6.6214H4.05561L4.18436 5.64657C4.37454 5.59875 4.55073 5.52519 4.71296 5.42955C4.87555 5.33391 5.02417 5.21985 5.15917 5.08374L6.06962 5.46265L6.42827 4.83731L5.63738 4.2377C5.66791 4.1531 5.68962 4.06482 5.70176 3.96918C5.7139 3.87353 5.72015 3.77788 5.72015 3.67856C5.72015 3.57924 5.7139 3.48358 5.70176 3.38794C5.68962 3.29229 5.66791 3.20402 5.63738 3.11941L6.42827 2.5198L6.06962 1.89447L5.15917 2.28069C5.02417 2.1409 4.87555 2.0232 4.71296 1.92756C4.55073 1.83192 4.37454 1.75836 4.18436 1.71054L4.0648 0.735711H3.33828L3.20953 1.71054C3.01935 1.75836 2.84315 1.83192 2.68056 1.92756C2.51833 2.0232 2.36972 2.13726 2.23472 2.27337L1.32427 1.89447L0.965621 2.5198L1.75651 3.10836C1.72598 3.20033 1.70427 3.29229 1.69213 3.38425C1.67999 3.47622 1.67374 3.57556 1.67374 3.67856C1.67374 3.77788 1.67999 3.86985 1.69213 3.96181C1.70427 4.05378 1.72598 4.14574 1.75651 4.2377L0.965621 4.83731L1.32427 5.46265L2.23472 5.07643C2.36972 5.21621 2.51833 5.33391 2.68056 5.42955C2.84315 5.52519 3.01935 5.59875 3.20953 5.64657L3.32909 6.6214ZM3.71533 4.96605C4.07105 4.96605 4.37453 4.84097 4.62578 4.59083C4.87702 4.33701 5.00283 4.03538 5.00283 3.67856C5.00283 3.32174 4.87702 3.02011 4.62578 2.76996C4.37453 2.51614 4.07105 2.39106 3.71533 2.39106C3.35373 2.39106 3.04842 2.51614 2.80012 2.76996C2.55181 3.02011 2.42784 3.32174 2.42784 3.67856C2.42784 4.03538 2.55181 4.33701 2.80012 4.59083C3.04842 4.84097 3.35373 4.96605 3.71533 4.96605Z" fill="#94A3B8"/>
</g>
<defs>
<clipPath id="clip0_17_58">
<rect width="8" height="8" fill="white"/>
</clipPath>
</defs>
</svg>
