<svg width="6" height="6" viewBox="0 0 6 6" fill="none" xmlns="http://www.w3.org/2000/svg">
<g clip-path="url(#clip0_17_56)">
<path d="M4.30769 5.74359C4.06847 5.74359 3.86486 5.66031 3.69744 5.49087C3.53001 5.32431 3.44615 5.12041 3.44615 4.88205C3.44615 4.85333 3.45333 4.7873 3.46769 4.68104L1.45026 3.50358C1.37358 3.57537 1.28513 3.63283 1.18462 3.67304C1.0841 3.71324 0.97641 3.73333 0.861539 3.73333C0.622318 3.73333 0.418708 3.65005 0.251282 3.48061C0.0838564 3.31405 0 3.11015 0 2.87179C0 2.63344 0.0838564 2.42954 0.251282 2.26298C0.418708 2.09354 0.622318 2.01026 0.861539 2.01026C0.97641 2.01026 1.0841 2.03035 1.18462 2.07055C1.28513 2.11076 1.37358 2.16822 1.45026 2.24001L3.46769 1.06255C3.45821 1.02809 3.45218 0.996509 3.44989 0.964919C3.4473 0.933329 3.44615 0.898872 3.44615 0.861539C3.44615 0.62318 3.53001 0.419283 3.69744 0.252719C3.86486 0.0832835 4.06847 0 4.30769 0C4.54691 0 4.75052 0.0832835 4.91795 0.252719C5.08537 0.419283 5.16923 0.62318 5.16923 0.861539C5.16923 1.0999 5.08537 1.30379 4.91795 1.47036C4.75052 1.63979 4.54691 1.72308 4.30769 1.72308C4.19282 1.72308 4.08513 1.70299 3.98462 1.66278C3.8841 1.62258 3.79565 1.56511 3.71897 1.49332L1.70154 2.67078C1.71102 2.70524 1.71704 2.73682 1.71963 2.76841C1.72193 2.8 1.72308 2.83446 1.72308 2.87179C1.72308 2.90913 1.72193 2.94359 1.71963 2.97518C1.71704 3.00677 1.71102 3.03835 1.70154 3.07281L3.71897 4.25027C3.79565 4.17848 3.8841 4.12101 3.98462 4.08081C4.08513 4.0406 4.19282 4.02051 4.30769 4.02051C4.54691 4.02051 4.75052 4.1038 4.91795 4.27323C5.08537 4.4398 5.16923 4.64369 5.16923 4.88205C5.16923 5.12041 5.08537 5.32431 4.91795 5.49087C4.75052 5.66031 4.54691 5.74359 4.30769 5.74359ZM4.30769 5.16923C4.38896 5.16923 4.45731 5.1405 4.51245 5.08594C4.5673 5.03137 4.59487 4.96246 4.59487 4.88205C4.59487 4.80164 4.5673 4.73273 4.51245 4.67817C4.45731 4.6236 4.38896 4.59487 4.30769 4.59487C4.22642 4.59487 4.15807 4.6236 4.10322 4.67817C4.04808 4.73273 4.02051 4.80164 4.02051 4.88205C4.02051 4.96246 4.04808 5.03137 4.10322 5.08594C4.15807 5.1405 4.22642 5.16923 4.30769 5.16923ZM0.861539 3.15897C0.94281 3.15897 1.01116 3.13025 1.0663 3.07568C1.12115 3.02112 1.14872 2.95221 1.14872 2.87179C1.14872 2.79138 1.12115 2.72247 1.0663 2.66791C1.01116 2.61334 0.94281 2.58462 0.861539 2.58462C0.780267 2.58462 0.711916 2.61334 0.657065 2.66791C0.601927 2.72247 0.574359 2.79138 0.574359 2.87179C0.574359 2.95221 0.601927 3.02112 0.657065 3.07568C0.711916 3.13025 0.780267 3.15897 0.861539 3.15897ZM4.30769 1.14872C4.38896 1.14872 4.45731 1.11999 4.51245 1.06542C4.5673 1.01086 4.59487 0.941949 4.59487 0.861539C4.59487 0.781128 4.5673 0.712216 4.51245 0.657652C4.45731 0.603088 4.38896 0.574359 4.30769 0.574359C4.22642 0.574359 4.15807 0.603088 4.10322 0.657652C4.04808 0.712216 4.02051 0.781128 4.02051 0.861539C4.02051 0.941949 4.04808 1.01086 4.10322 1.06542C4.15807 1.11999 4.22642 1.14872 4.30769 1.14872Z" fill="#94A3B8"/>
</g>
<defs>
<clipPath id="clip0_17_56">
<rect width="6" height="6" fill="white"/>
</clipPath>
</defs>
</svg>
