<svg width="5" height="5" viewBox="0 0 5 5" fill="none" xmlns="http://www.w3.org/2000/svg">
<g clip-path="url(#clip0_17_48)">
<path d="M2.05793 3.49383L3.74511 1.80665L3.41026 1.47179L2.05793 2.82384L1.37588 2.14178L1.04103 2.47692L2.05793 3.49383ZM2.39306 4.78613C2.06195 4.78613 1.75093 4.72353 1.45973 4.59774C1.16853 4.47225 0.91524 4.30166 0.699855 4.08628C0.484471 3.87089 0.313889 3.6176 0.188391 3.3264C0.0626068 3.0352 0 2.72418 0 2.39307C0 2.06195 0.0626068 1.75093 0.188391 1.45973C0.313889 1.16853 0.484471 0.91524 0.699855 0.699855C0.91524 0.484471 1.16853 0.313887 1.45973 0.188389C1.75093 0.0626046 2.06195 0 2.39306 0C2.72418 0 3.0352 0.0626046 3.3264 0.188389C3.6176 0.313887 3.87089 0.484471 4.08628 0.699855C4.30166 0.91524 4.47224 1.16853 4.59774 1.45973C4.72353 1.75093 4.78613 2.06195 4.78613 2.39307C4.78613 2.72418 4.72353 3.0352 4.59774 3.3264C4.47224 3.6176 4.30166 3.87089 4.08628 4.08628C3.87089 4.30166 3.6176 4.47225 3.3264 4.59774C3.0352 4.72353 2.72418 4.78613 2.39306 4.78613ZM2.39306 4.30769C2.92751 4.30769 3.38039 4.12217 3.75114 3.75114C4.12217 3.3801 4.30769 2.92751 4.30769 2.39307C4.30769 1.85863 4.12217 1.40574 3.75114 1.035C3.38039 0.66396 2.92751 0.478441 2.39306 0.478441C1.85862 0.478441 1.40603 0.66396 1.035 1.035C0.66396 1.40574 0.478441 1.85863 0.478441 2.39307C0.478441 2.92751 0.66396 3.3801 1.035 3.75114C1.40603 4.12217 1.85862 4.30769 2.39306 4.30769Z" fill="#94A3B8"/>
</g>
<defs>
<clipPath id="clip0_17_48">
<rect width="5" height="5" fill="white"/>
</clipPath>
</defs>
</svg>
