<svg width="5" height="6" viewBox="0 0 5 6" fill="none" xmlns="http://www.w3.org/2000/svg">
<path d="M0 4.88205V4.30769H0.574359V2.29744C0.574359 1.90027 0.694027 1.54733 0.933333 1.23832C1.17264 0.929603 1.48377 0.727429 1.86667 0.631798V0.430769C1.86667 0.311015 1.90854 0.20935 1.99231 0.125781C2.07608 0.0419248 2.17777 0 2.29744 0C2.4171 0 2.51879 0.0419248 2.60256 0.125781C2.68633 0.20935 2.72821 0.311015 2.72821 0.430769V0.631798C3.1111 0.727429 3.42223 0.929603 3.66154 1.23832C3.90085 1.54733 4.02051 1.90027 4.02051 2.29744V4.30769H4.59487V4.88205H0ZM2.29744 5.74359C2.13949 5.74359 2.00428 5.68731 1.8918 5.57502C1.77931 5.46245 1.72308 5.32718 1.72308 5.16923H2.87179C2.87179 5.32718 2.81556 5.46245 2.70308 5.57502C2.59059 5.68731 2.45538 5.74359 2.29744 5.74359ZM1.14872 4.30769H3.44615V2.29744C3.44615 1.98154 3.33367 1.71101 3.10872 1.48615C2.88377 1.26129 2.61333 1.14872 2.29744 1.14872C1.98154 1.14872 1.7111 1.26129 1.48615 1.48615C1.26121 1.71101 1.14872 1.98154 1.14872 2.29744V4.30769Z" fill="#EC5B13"/>
</svg>
