<svg width="8" height="8" viewBox="0 0 8 8" fill="none" xmlns="http://www.w3.org/2000/svg">
<path d="M0 1.83928V0H1.83928V0.735711H0.735711V1.83928H0ZM0 7.35711V5.51783H0.735711V6.6214H1.83928V7.35711H0ZM5.51783 7.35711V6.6214H6.6214V5.51783H7.35711V7.35711H5.51783ZM6.6214 1.83928V0.735711H5.51783V0H7.35711V1.83928H6.6214ZM5.70176 5.70176H6.25355V6.25355H5.70176V5.70176ZM5.70176 4.5982H6.25355V5.14998H5.70176V4.5982ZM5.14998 5.14998H5.70176V5.70176H5.14998V5.14998ZM4.5982 5.70176H5.14998V6.25355H4.5982V5.70176ZM4.04641 5.14998H4.5982V5.70176H4.04641V5.14998ZM5.14998 4.04641H5.70176V4.5982H5.14998V4.04641ZM4.5982 4.5982H5.14998V5.14998H4.5982V4.5982ZM4.04641 4.04641H4.5982V4.5982H4.04641V4.04641ZM6.25355 1.10357V3.3107H4.04641V1.10357H6.25355ZM3.3107 4.04641V6.25355H1.10357V4.04641H3.3107ZM3.3107 1.10357V3.3107H1.10357V1.10357H3.3107ZM2.75892 5.70176V4.5982H1.65535V5.70176H2.75892ZM2.75892 2.75892V1.65535H1.65535V2.75892H2.75892ZM5.70176 2.75892V1.65535H4.5982V2.75892H5.70176Z" fill="#EC5B13"/>
</svg>
