<svg width="7" height="8" viewBox="0 0 7 8" fill="none" xmlns="http://www.w3.org/2000/svg">
<g clip-path="url(#clip0_17_96)">
<path d="M1.10357 7.35711C0.797143 7.35711 0.536334 7.25043 0.321874 7.0334C0.107414 6.82004 0 6.55887 0 6.25355V5.14998H1.10357V0L1.65535 0.551783L2.20713 0L2.75892 0.551783L3.3107 0L3.86248 0.551783L4.41427 0L4.96605 0.551783L5.51783 0L6.06962 0.551783L6.6214 0V6.25355C6.6214 6.55887 6.51399 6.82004 6.29953 7.0334C6.08507 7.25043 5.82426 7.35711 5.51783 7.35711H1.10357ZM5.51783 6.6214C5.62194 6.6214 5.70949 6.5846 5.77975 6.51471C5.85038 6.44482 5.88569 6.35654 5.88569 6.25355V1.10357H1.83928V5.14998H5.14998V6.25355C5.14998 6.35654 5.18529 6.44482 5.25592 6.51471C5.32618 6.5846 5.41373 6.6214 5.51783 6.6214ZM2.20713 2.57499V1.83928H4.41427V2.57499H2.20713ZM2.20713 3.67856V2.94284H4.41427V3.67856H2.20713ZM5.14998 2.57499C5.04588 2.57499 4.95832 2.53819 4.88806 2.4683C4.81744 2.3984 4.78212 2.31013 4.78212 2.20713C4.78212 2.10413 4.81744 2.01586 4.88806 1.94597C4.95832 1.87608 5.04588 1.83928 5.14998 1.83928C5.25408 1.83928 5.34163 1.87608 5.41189 1.94597C5.48252 2.01586 5.51783 2.10413 5.51783 2.20713C5.51783 2.31013 5.48252 2.3984 5.41189 2.4683C5.34163 2.53819 5.25408 2.57499 5.14998 2.57499ZM5.14998 3.67856C5.04588 3.67856 4.95832 3.64176 4.88806 3.57186C4.81744 3.50197 4.78212 3.4137 4.78212 3.3107C4.78212 3.2077 4.81744 3.11943 4.88806 3.04954C4.95832 2.97964 5.04588 2.94284 5.14998 2.94284C5.25408 2.94284 5.34163 2.97964 5.41189 3.04954C5.48252 3.11943 5.51783 3.2077 5.51783 3.3107C5.51783 3.4137 5.48252 3.50197 5.41189 3.57186C5.34163 3.64176 5.25408 3.67856 5.14998 3.67856ZM1.10357 6.6214H4.41427V5.88569H0.735711V6.25355C0.735711 6.35654 0.771026 6.44482 0.841287 6.51471C0.911915 6.5846 0.999464 6.6214 1.10357 6.6214ZM0.735711 6.6214C0.735711 6.6214 0.735711 6.5846 0.735711 6.51471C0.735711 6.44482 0.735711 6.35654 0.735711 6.25355V5.88569V6.6214Z" fill="#0F172A"/>
</g>
<defs>
<clipPath id="clip0_17_96">
<rect width="7" height="8" fill="white"/>
</clipPath>
</defs>
</svg>
