<svg width="6" height="6" viewBox="0 0 6 6" fill="none" xmlns="http://www.w3.org/2000/svg">
<g clip-path="url(#clip0_17_10)">
<path d="M0.574359 5.74359C0.41641 5.74359 0.28115 5.68731 0.168576 5.57502C0.0562888 5.46245 0 5.32718 0 5.16923V1.14872C0 0.990769 0.0562888 0.855511 0.168576 0.743224C0.28115 0.63065 0.41641 0.574359 0.574359 0.574359H0.861539V0H1.4359V0.574359H3.73333V0H4.30769V0.574359H4.59487C4.75282 0.574359 4.88808 0.63065 5.00066 0.743224C5.11294 0.855511 5.16923 0.990769 5.16923 1.14872V5.16923C5.16923 5.32718 5.11294 5.46245 5.00066 5.57502C4.88808 5.68731 4.75282 5.74359 4.59487 5.74359H0.574359ZM0.574359 5.16923H4.59487V2.29744H0.574359V5.16923ZM0.574359 1.72308H4.59487V1.14872H0.574359V1.72308Z" fill="#EC5B13"/>
</g>
<defs>
<clipPath id="clip0_17_10">
<rect width="6" height="6" fill="white"/>
</clipPath>
</defs>
</svg>
