<svg width="5" height="6" viewBox="0 0 5 6" fill="none" xmlns="http://www.w3.org/2000/svg">
<g clip-path="url(#clip0_17_18)">
<path d="M2.29744 2.87179C2.45538 2.87179 2.59059 2.81552 2.70308 2.70323C2.81556 2.59065 2.87179 2.45538 2.87179 2.29744C2.87179 2.13949 2.81556 2.00423 2.70308 1.89194C2.59059 1.77937 2.45538 1.72308 2.29744 1.72308C2.13949 1.72308 2.00428 1.77937 1.8918 1.89194C1.77931 2.00423 1.72308 2.13949 1.72308 2.29744C1.72308 2.45538 1.77931 2.59065 1.8918 2.70323C2.00428 2.81552 2.13949 2.87179 2.29744 2.87179ZM2.29744 4.98256C2.88136 4.44639 3.31454 3.95935 3.59692 3.5214C3.87931 3.08345 4.02051 2.69461 4.02051 2.35488C4.02051 1.83307 3.85418 1.40603 3.52154 1.07319C3.1889 0.740636 2.78085 0.574359 2.29744 0.574359C1.81403 0.574359 1.40597 0.740636 1.07333 1.07319C0.740693 1.40603 0.574359 1.83307 0.574359 2.35488C0.574359 2.69461 0.715565 3.08345 0.997948 3.5214C1.28033 3.95935 1.71351 4.44639 2.29744 4.98256ZM2.29744 5.74359C1.52685 5.08796 0.951282 4.47886 0.570769 3.91627C0.190256 3.35398 0 2.8336 0 2.35488C0 1.63693 0.230949 1.06485 0.69282 0.638967C1.15469 0.21308 1.68956 0 2.29744 0C2.90531 0 3.44018 0.21308 3.90205 0.638967C4.36392 1.06485 4.59487 1.63693 4.59487 2.35488C4.59487 2.8336 4.40462 3.35398 4.0241 3.91627C3.64359 4.47886 3.06802 5.08796 2.29744 5.74359Z" fill="#EC5B13"/>
</g>
<defs>
<clipPath id="clip0_17_18">
<rect width="5" height="6" fill="white"/>
</clipPath>
</defs>
</svg>
