<svg width="7" height="7" viewBox="0 0 7 7" fill="none" xmlns="http://www.w3.org/2000/svg">
<g clip-path="url(#clip0_17_20)">
<path d="M3.3107 6.6214C2.46463 6.6214 1.72745 6.34072 1.09878 5.77974C0.470487 5.21876 0.110358 4.51837 0.0183939 3.67856H0.772499C0.858209 4.31605 1.14182 4.84355 1.62298 5.26033C2.1045 5.67711 2.66695 5.88569 3.3107 5.88569C4.02802 5.88569 4.63645 5.63591 5.136 5.13599C5.63592 4.63644 5.88569 4.02802 5.88569 3.3107C5.88569 2.59338 5.63592 1.98494 5.136 1.48503C4.63645 0.985481 4.02802 0.735711 3.3107 0.735711C2.88767 0.735711 2.49222 0.833924 2.12436 1.02999C1.75651 1.22606 1.44678 1.49607 1.19553 1.83928H2.20713V2.57499H0V0.367856H0.735711V1.23231C1.04839 0.839805 1.43023 0.536334 1.88085 0.321874C2.33147 0.107414 2.80784 0 3.3107 0C3.77052 0 4.20128 0.0871726 4.60261 0.261904C5.00431 0.436635 5.35377 0.672808 5.65137 0.970403C5.9486 1.26763 6.18475 1.61708 6.35949 2.01878C6.53422 2.42011 6.6214 2.85088 6.6214 3.3107C6.6214 3.77052 6.53422 4.20129 6.35949 4.60262C6.18475 5.00432 5.9486 5.35376 5.65137 5.65136C5.35377 5.94858 5.00431 6.18477 4.60261 6.3595C4.20128 6.53423 3.77052 6.6214 3.3107 6.6214ZM4.3407 4.8557L2.94285 3.45785V1.47142H3.67856V3.16355L4.85569 4.34069L4.3407 4.8557Z" fill="#EC5B13"/>
</g>
<defs>
<clipPath id="clip0_17_20">
<rect width="7" height="7" fill="white"/>
</clipPath>
</defs>
</svg>
