<svg width="6" height="6" viewBox="0 0 6 6" fill="none" xmlns="http://www.w3.org/2000/svg">
<g clip-path="url(#clip0_17_26)">
<path d="M2.01026 3.01538H2.29744V2.44103H2.58462C2.66589 2.44103 2.73424 2.41345 2.78938 2.35831C2.84423 2.30346 2.87179 2.23512 2.87179 2.15385V1.86667C2.87179 1.78539 2.84423 1.71704 2.78938 1.6619C2.73424 1.60705 2.66589 1.57949 2.58462 1.57949H2.01026V3.01538ZM2.29744 2.15385V1.86667H2.58462V2.15385H2.29744ZM3.15897 3.01538H3.73333C3.81461 3.01538 3.88296 2.98781 3.9381 2.93267C3.99295 2.87782 4.02051 2.80948 4.02051 2.72821V1.86667C4.02051 1.78539 3.99295 1.71704 3.9381 1.6619C3.88296 1.60705 3.81461 1.57949 3.73333 1.57949H3.15897V3.01538ZM3.44615 2.72821V1.86667H3.73333V2.72821H3.44615ZM4.30769 3.01538H4.59487V2.44103H4.88205V2.15385H4.59487V1.86667H4.88205V1.57949H4.30769V3.01538ZM1.72308 4.59487C1.56513 4.59487 1.42987 4.53859 1.31758 4.4263C1.20501 4.31373 1.14872 4.17846 1.14872 4.02051V0.574359C1.14872 0.41641 1.20501 0.281142 1.31758 0.168567C1.42987 0.05628 1.56513 0 1.72308 0H5.16923C5.32718 0 5.46244 0.05628 5.57502 0.168567C5.68731 0.281142 5.74359 0.41641 5.74359 0.574359V4.02051C5.74359 4.17846 5.68731 4.31373 5.57502 4.4263C5.46244 4.53859 5.32718 4.59487 5.16923 4.59487H1.72308ZM1.72308 4.02051H5.16923V0.574359H1.72308V4.02051ZM0.574359 5.74359C0.41641 5.74359 0.281152 5.68616 0.168865 5.57502C0.0562908 5.46245 0 5.32718 0 5.16923V1.14872H0.574359V5.16923H4.59487V5.74359H0.574359Z" fill="#EC5B13"/>
</g>
<defs>
<clipPath id="clip0_17_26">
<rect width="6" height="6" fill="white"/>
</clipPath>
</defs>
</svg>
