<svg width="9" height="6" viewBox="0 0 9 6" fill="none" xmlns="http://www.w3.org/2000/svg">
<g clip-path="url(#clip0_17_46)">
<path d="M0 5.88569V4.8557C0 4.64712 0.0537026 4.45548 0.161116 4.28075C0.268162 4.10601 0.410897 3.97284 0.588571 3.88087C0.968566 3.69069 1.35481 3.54834 1.74731 3.45307C2.13982 3.35816 2.5382 3.3107 2.94284 3.3107C3.34749 3.3107 3.74587 3.35816 4.13838 3.45307C4.53088 3.54834 4.91712 3.69069 5.29712 3.88087C5.47479 3.97284 5.61753 4.10601 5.72457 4.28075C5.83199 4.45548 5.88569 4.64712 5.88569 4.8557V5.88569H0ZM6.6214 5.88569V4.78212C6.6214 4.51249 6.54636 4.25316 6.39627 4.00485C6.24582 3.75655 6.03283 3.54356 5.75694 3.36589C6.06961 3.40267 6.3639 3.46558 6.63979 3.5546C6.91568 3.64325 7.17318 3.75212 7.41229 3.88087C7.633 4.00337 7.80148 4.13986 7.91809 4.29031C8.0347 4.44039 8.09282 4.60445 8.09282 4.78212V5.88569H6.6214ZM2.94284 2.94285C2.5382 2.94285 2.19168 2.79865 1.90365 2.51062C1.61562 2.22259 1.47142 1.87606 1.47142 1.47142C1.47142 1.06678 1.61562 0.720257 1.90365 0.432226C2.19168 0.144195 2.5382 0 2.94284 0C3.34749 0 3.69401 0.144195 3.98204 0.432226C4.27007 0.720257 4.41427 1.06678 4.41427 1.47142C4.41427 1.87606 4.27007 2.22259 3.98204 2.51062C3.69401 2.79865 3.34749 2.94285 2.94284 2.94285ZM6.6214 1.47142C6.6214 1.87606 6.47721 2.22259 6.18917 2.51062C5.90114 2.79865 5.55462 2.94285 5.14998 2.94285C5.08266 2.94285 4.99658 2.93512 4.89247 2.92003C4.78837 2.90458 4.7023 2.88766 4.63498 2.86927C4.80052 2.6732 4.92779 2.45545 5.01644 2.21634C5.10546 1.97723 5.14998 1.72892 5.14998 1.47142C5.14998 1.21392 5.10546 0.965612 5.01644 0.726506C4.92779 0.4874 4.80052 0.269643 4.63498 0.0735756C4.72069 0.0430436 4.80676 0.0231841 4.89247 0.0139877C4.97819 0.00479128 5.06427 0 5.14998 0C5.55462 0 5.90114 0.144195 6.18917 0.432226C6.47721 0.720257 6.6214 1.06678 6.6214 1.47142ZM0.735711 5.14998H5.14998V4.8557C5.14998 4.78838 5.13306 4.72695 5.09958 4.67177C5.06574 4.61659 5.02123 4.57354 4.96605 4.54301C4.63498 4.37747 4.30097 4.25314 3.96364 4.17037C3.62632 4.0876 3.28605 4.04641 2.94284 4.04641C2.59964 4.04641 2.25937 4.0876 1.92205 4.17037C1.58472 4.25314 1.25071 4.37747 0.919639 4.54301C0.864461 4.57354 0.81995 4.61659 0.786475 4.67177C0.752633 4.72695 0.735711 4.78838 0.735711 4.8557V5.14998ZM2.94284 2.20713C3.14517 2.20713 3.31842 2.13503 3.46262 1.99083C3.60645 1.847 3.67856 1.67374 3.67856 1.47142C3.67856 1.2691 3.60645 1.09585 3.46262 0.952015C3.31842 0.807816 3.14517 0.735711 2.94284 0.735711C2.74052 0.735711 2.56727 0.807816 2.42344 0.952015C2.27924 1.09585 2.20713 1.2691 2.20713 1.47142C2.20713 1.67374 2.27924 1.847 2.42344 1.99083C2.56727 2.13503 2.74052 2.20713 2.94284 2.20713Z" fill="#EC5B13"/>
</g>
<defs>
<clipPath id="clip0_17_46">
<rect width="9" height="6" fill="white"/>
</clipPath>
</defs>
</svg>
