<svg width="6" height="6" viewBox="0 0 6 6" fill="none" xmlns="http://www.w3.org/2000/svg">
<g clip-path="url(#clip0_17_38)">
<path d="M3.81949 4.22154L4.22154 3.81948L3.15897 2.75692V1.4359H2.58462V2.98667L3.81949 4.22154ZM2.87179 5.74359C2.47454 5.74359 2.10121 5.66805 1.75179 5.51729C1.40238 5.36652 1.09846 5.16206 0.84 4.90359C0.581538 4.64513 0.376923 4.3413 0.226153 3.9918C0.0753842 3.6423 0 3.26896 0 2.87179C0 2.47463 0.0753842 2.10129 0.226153 1.75179C0.376923 1.40229 0.581538 1.09846 0.84 0.839997C1.09846 0.581535 1.40238 0.376787 1.75179 0.226305C2.10121 0.0755354 2.47454 0 2.87179 0C3.26905 0 3.64238 0.0755354 3.9918 0.226305C4.34121 0.376787 4.64513 0.581535 4.90359 0.839997C5.16205 1.09846 5.36667 1.40229 5.51744 1.75179C5.66821 2.10129 5.74359 2.47463 5.74359 2.87179C5.74359 3.26896 5.66821 3.6423 5.51744 3.9918C5.36667 4.3413 5.16205 4.64513 4.90359 4.90359C4.64513 5.16206 4.34121 5.36652 3.9918 5.51729C3.64238 5.66805 3.26905 5.74359 2.87179 5.74359ZM2.87179 5.16923C3.50839 5.16923 4.05044 4.94553 4.49795 4.4981C4.94546 4.05039 5.16923 3.50847 5.16923 2.87179C5.16923 2.23512 4.94546 1.69321 4.49795 1.24579C4.05044 0.798075 3.50839 0.574359 2.87179 0.574359C2.2352 0.574359 1.69315 0.798075 1.24564 1.24579C0.79813 1.69321 0.574359 2.23512 0.574359 2.87179C0.574359 3.50847 0.79813 4.05039 1.24564 4.4981C1.69315 4.94553 2.2352 5.16923 2.87179 5.16923Z" fill="#EC5B13"/>
</g>
<defs>
<clipPath id="clip0_17_38">
<rect width="6" height="6" fill="white"/>
</clipPath>
</defs>
</svg>
